<svg width="28" height="29" viewBox="0 0 28 29" fill="none" xmlns="http://www.w3.org/2000/svg">
<path fill-rule="evenodd" clip-rule="evenodd" d="M2 2H18V22H2V2ZM0 2C0 0.895447 0.895447 0 2 0H18C19.1046 0 20 0.895447 20 2V22C20 23.1046 19.1046 24 18 24H2C0.895447 24 0 23.1046 0 22V2ZM14 18C14.5522 18 15 17.5523 15 17C15 16.4477 14.5522 16 14 16H6C5.44769 16 5 16.4477 5 17C5 17.5523 5.44769 18 6 18H14ZM15 12C15 12.5523 14.5522 13 14 13H6C5.44769 13 5 12.5523 5 12C5 11.4477 5.44769 11 6 11H14C14.5522 11 15 11.4477 15 12ZM14 8C14.5522 8 15 7.55231 15 7C15 6.44769 14.5522 6 14 6H6C5.44769 6 5 6.44769 5 7C5 7.55231 5.44769 8 6 8H14Z" transform="translate(4 2.76831)" fill="#828282"/>
</svg>
