<svg width="28" height="29" viewBox="0 0 28 29" fill="none" xmlns="http://www.w3.org/2000/svg">
<path fill-rule="evenodd" clip-rule="evenodd" d="M16 22V1.6C16 1.03995 16 0.759921 15.891 0.546009C15.7951 0.357847 15.6422 0.204867 15.454 0.108993C15.2401 0 14.9601 0 14.4 0H1.6C1.03995 0 0.759921 0 0.546009 0.108993C0.357847 0.204867 0.204867 0.357847 0.108993 0.546009C0 0.759921 0 1.03995 0 1.6V22L8 14L16 22ZM2 17.1716L6.58579 12.5858C7.36684 11.8047 8.63317 11.8047 9.41421 12.5858L14 17.1716V2H2V17.1716ZM2.00751 1.10039C2.00751 1.1004 2.00746 1.10101 2.00732 1.10219L2.00751 1.10039ZM1.1022 2.00732C1.10101 2.00745 1.1004 2.00751 1.10039 2.00751L1.1022 2.00732ZM14.8996 2.00751C14.8996 2.00751 14.899 2.00746 14.8978 2.00732L14.8996 2.00751ZM13.9927 1.1022C13.9925 1.10101 13.9925 1.1004 13.9925 1.10039L13.9927 1.1022Z" transform="translate(6 3.76831)" fill="#828282"/>
</svg>
