<svg width="28" height="29" viewBox="0 0 28 29" fill="none" xmlns="http://www.w3.org/2000/svg">
<path fill-rule="evenodd" clip-rule="evenodd" d="M19 2H2V15H8C8.55231 15 9 15.4478 9 16C9 16.5522 8.55231 17 8 17H2C0.895447 17 0 16.1046 0 15V2C0 0.895386 0.895447 0 2 0H19C20.1046 0 21 0.895386 21 2V5C21 5.55225 20.5522 6 20 6C19.4478 6 19 5.55225 19 5V2ZM10 8C10.5523 8 11 7.55225 11 7C11 6.44775 10.5523 6 10 6H6C5.44769 6 5 6.44775 5 7C5 7.55225 5.44769 8 6 8H10ZM13 17.7428C11.7785 16.734 11 15.208 11 13.5C11 10.4624 13.4625 8 16.5 8C19.5376 8 22 10.4624 22 13.5C22 15.208 21.2216 16.7341 20 17.7429V24L17.1643 21.4795C16.7855 21.1427 16.2145 21.1427 15.8357 21.4795L13 24V17.7428ZM19.8 13.5C19.8 15.3225 18.3225 16.8 16.5 16.8C14.6775 16.8 13.2 15.3225 13.2 13.5C13.2 11.6775 14.6775 10.2 16.5 10.2C18.3225 10.2 19.8 11.6775 19.8 13.5Z" transform="translate(3 3.76831)" fill="#828282"/>
</svg>
