<svg width="28" height="29" viewBox="0 0 28 29" fill="none" xmlns="http://www.w3.org/2000/svg">
<mask id="mask0" mask-type="alpha" maskUnits="userSpaceOnUse" x="0" y="0" width="28" height="29">
<path fill-rule="evenodd" clip-rule="evenodd" d="M0 0H28V27.8247H0V0Z" transform="translate(0 0.200439)" fill="white"/>
</mask>
<g mask="url(#mask0)">
<path fill-rule="evenodd" clip-rule="evenodd" d="M9.33333 18.5498C10.6167 18.5498 11.6667 17.5064 11.6667 16.2311C11.6667 14.9558 10.6167 13.9124 9.33333 13.9124C8.05 13.9124 7 14.9558 7 16.2311C7 17.5064 8.05 18.5498 9.33333 18.5498ZM16.3333 8.11552H15.1667V5.7968C15.1667 2.59697 12.5533 0 9.33333 0C6.11333 0 3.5 2.59697 3.5 5.7968V8.11552H2.33333C1.05 8.11552 0 9.15895 0 10.4342V22.0279C0 23.3031 1.05 24.3466 2.33333 24.3466H16.3333C17.6167 24.3466 18.6667 23.3031 18.6667 22.0279V10.4342C18.6667 9.15895 17.6167 8.11552 16.3333 8.11552ZM5.71667 5.79678C5.71667 3.81427 7.33834 2.20276 9.33334 2.20276C11.3283 2.20276 12.95 3.81427 12.95 5.79678V8.1155H5.71667V5.79678ZM16.3333 22.0279H2.33331V10.4343H16.3333V22.0279Z" transform="translate(4.66669 1.3598)" fill="#868686"/>
</g>
</svg>
