<svg width="28" height="28" viewBox="0 0 28 28" fill="none" xmlns="http://www.w3.org/2000/svg">
<path fill-rule="evenodd" clip-rule="evenodd" d="M20.0192 12.7298C20.0659 12.3588 20.1009 11.9878 20.1009 11.5936C20.1009 11.1994 20.0659 10.8284 20.0192 10.4574L22.4809 8.54449C22.7026 8.37058 22.7609 8.05756 22.6209 7.8025L20.2876 3.79111C20.1476 3.53605 19.8326 3.4433 19.5759 3.53605L16.6709 4.69541C16.0642 4.23167 15.4109 3.84908 14.6992 3.55924L14.2559 0.486931C14.2209 0.208685 13.9759 0 13.6842 0H9.01755C8.72589 0 8.48089 0.208685 8.44589 0.486931L8.00255 3.55924C7.29089 3.84908 6.63755 4.24326 6.03089 4.69541L3.12589 3.53605C2.85755 3.43171 2.55422 3.53605 2.41422 3.79111L0.0808869 7.8025C-0.0707798 8.05756 -0.000779792 8.37058 0.220887 8.54449L2.68255 10.4574C2.63589 10.8284 2.60089 11.211 2.60089 11.5936C2.60089 11.9762 2.63589 12.3588 2.68255 12.7298L0.220887 14.6427C-0.000779792 14.8166 -0.0591131 15.1297 0.0808869 15.3847L2.41422 19.3961C2.55422 19.6512 2.86922 19.7439 3.12589 19.6512L6.03089 18.4918C6.63755 18.9555 7.29089 19.3381 8.00255 19.628L8.44589 22.7003C8.48089 22.9785 8.72589 23.1872 9.01755 23.1872H13.6842C13.9759 23.1872 14.2209 22.9785 14.2559 22.7003L14.6992 19.628C15.4109 19.3381 16.0642 18.944 16.6709 18.4918L19.5759 19.6512C19.8442 19.7555 20.1476 19.6512 20.2876 19.3961L22.6209 15.3847C22.7609 15.1297 22.7026 14.8166 22.4809 14.6427L20.0192 12.7298ZM11.3509 15.6514C9.09918 15.6514 7.26752 13.8312 7.26752 11.5936C7.26752 9.35605 9.09918 7.53586 11.3509 7.53586C13.6025 7.53586 15.4342 9.35605 15.4342 11.5936C15.4342 13.8312 13.6025 15.6514 11.3509 15.6514Z" transform="translate(2.64911 2.48795)" fill="#9B9B9B"/>
</svg>
