<svg width="200" height="200" viewBox="0 0 200 200" fill="none" xmlns="http://www.w3.org/2000/svg">
<path fill-rule="evenodd" clip-rule="evenodd" d="M100 200C155.228 200 200 155.228 200 100C200 44.7715 155.228 0 100 0C44.7715 0 0 44.7715 0 100C0 155.228 44.7715 200 100 200Z" fill="#A5A5A5"/>
<path fill-rule="evenodd" clip-rule="evenodd" d="M90 30C90 46.6 76.6 60 60 60C43.4 60 30 46.6 30 30C30 13.4 43.4 0 60 0C76.6 0 90 13.4 90 30ZM0 110C0 90 40 79 60 79C80 79 120 90 120 110V120H0V110Z" transform="translate(40 40)" fill="white"/>
</svg>
