<svg width="28" height="28" viewBox="0 0 28 28" fill="none" xmlns="http://www.w3.org/2000/svg">
<path fill-rule="evenodd" clip-rule="evenodd" d="M14.6666 8C14.6666 11.6819 11.6819 14.6667 8 14.6667C4.31812 14.6667 1.33331 11.6819 1.33331 8C1.33331 4.31812 4.31812 1.33331 8 1.33331C11.6819 1.33331 14.6666 4.31812 14.6666 8ZM16 8C16 12.4183 12.4183 16 8 16C3.58173 16 0 12.4183 0 8C0 3.58173 3.58173 0 8 0C12.4183 0 16 3.58173 16 8ZM8 4C7.63177 4 7.33331 4.29846 7.33331 4.66669V8C7.33331 8.15387 7.38654 8.30304 7.48401 8.42218L10.0618 11.5729C10.295 11.8578 10.715 11.8998 11 11.6667C11.285 11.4335 11.327 11.0135 11.0938 10.7285L8.81732 7.94623C8.71991 7.82709 8.66663 7.67792 8.66663 7.52405V4.66669C8.66663 4.29846 8.36816 4 8 4Z" transform="translate(6 6)" fill="#828282"/>
</svg>
